HIERARCHY
ROOT Hips
{
  OFFSET -13.859 91.1892 21.8595
  CHANNELS 6 Xposition Yposition Zposition Zrotation Xrotation Yrotation
  JOINT Spine
  {
    OFFSET 10.8089 -0.851415 0
    CHANNELS 3 Zrotation Xrotation Yrotation
    JOINT Spine1
    {
      OFFSET 18.8753 3.80116 0
      CHANNELS 3 Zrotation Xrotation Yrotation
      JOINT Spine2
      {
        OFFSET 13.4073 0.420477 0
        CHANNELS 3 Zrotation Xrotation Yrotation
        JOINT LeftShoulder
        {
          OFFSET 11.8837 -2.73209 -3.78198
          CHANNELS 3 Zrotation Xrotation Yrotation
          JOINT LeftArm
          {
            OFFSET 15.7849 0 0
            CHANNELS 3 Zrotation Xrotation Yrotation
            JOINT LeftForeArm
            {
              OFFSET 30.3399 0 0
              CHANNELS 3 Zrotation Xrotation Yrotation
              JOINT LeftHand
              {
                OFFSET 26.9751 0 0
                CHANNELS 3 Zrotation Xrotation Yrotation
                End Site
                {
                  OFFSET 8 0 0
                }
              }
            }
          }
        }
        JOINT RightShoulder
        {
          OFFSET 11.8838 -2.7321 3.782
          CHANNELS 3 Zrotation Xrotation Yrotation
          JOINT RightArm
          {
            OFFSET -15.7848 0 0
            CHANNELS 3 Zrotation Xrotation Yrotation
            JOINT RightForeArm
            {
              OFFSET -30.34 0 0
              CHANNELS 3 Zrotation Xrotation Yrotation
              JOINT RightHand
              {
                OFFSET -26.9752 2.55532e-05 0
                CHANNELS 3 Zrotation Xrotation Yrotation
                End Site
                {
                  OFFSET -8 0 0
                }
              }
            }
          }
        }
        JOINT Neck
        {
          OFFSET 16.5588 -0.355317 0
          CHANNELS 3 Zrotation Xrotation Yrotation
          JOINT Head
          {
            OFFSET 9.28362 0.364158 0
            CHANNELS 3 Zrotation Xrotation Yrotation
            End Site
            {
              OFFSET 5.28361 0.364157 0
            }
          }
        }
      }
    }
  }
  JOINT LeftUpLeg
  {
    OFFSET -1.44882 -0.531424 -9.00581
    CHANNELS 3 Zrotation Xrotation Yrotation
    JOINT LeftLeg
    {
      OFFSET -42.572 0 0
      CHANNELS 3 Zrotation Xrotation Yrotation
      JOINT LeftFoot
      {
        OFFSET -40.1967 0 0
        CHANNELS 3 Zrotation Xrotation Yrotation
        JOINT LeftToe
        {
          OFFSET -10.4538 -16.5779 0.0801573
          CHANNELS 3 Zrotation Xrotation Yrotation
          End Site
          {
            OFFSET 3 0 0
          }
        }
      }
    }
  }
  JOINT RightUpLeg
  {
    OFFSET -1.44865 -0.531428 9.0058
    CHANNELS 3 Zrotation Xrotation Yrotation
    JOINT RightLeg
    {
      OFFSET 42.5723 0 0
      CHANNELS 3 Zrotation Xrotation Yrotation
      JOINT RightFoot
      {
        OFFSET 40.1968 0 -1.14441e-05
        CHANNELS 3 Zrotation Xrotation Yrotation
        JOINT RightToe
        {
          OFFSET 10.4538 16.5778 -0.0801582
          CHANNELS 3 Zrotation Xrotation Yrotation
          End Site
          {
            OFFSET -3 0 0
          }
        }
      }
    }
  }
}
MOTION
Frames:	19
Frame Time:	0.0333333
1.46373 91.3068 67.9381 -71.5595 -82.4587 -156.898 -7.12253 2.01118 -1.132 14.1796 3.35012 -3.17642 2.89538 3.19225 -3.33503 -6.37522 30.3124 97.7216 -45.7125 20.6401 88.3274 -19.3559 -5.31993 -8.07909 -13.6061 -60.3819 -5.79378 174.264 28.9002 95.6702 -44.3967 0.936271 77.4145 -31.594 -3.4031 -16.5639 -19.5656 -75.119 -16.4151 -10.9571 -2.37719 7.23387 -11.5324 -9.3992 -3.08491 39.4437 4.70824 -8.16505 -28.9798 -5.42435 0.324885 -5.42989 2.72316 -0.155508 -91.8836 0.00394553 0.00895438 163.803 0.376648 6.1121 -21.5109 -6.7952 -0.968845 -1.57919 -3.7416 -1.80557 -91.8836 0.00394166 0.00895438 
1.98713 91.1647 74.9442 -76.6124 -83.4306 -163.303 -7.0792 1.93643 -0.878966 14.2603 3.32738 -2.65017 2.97747 3.19502 -2.80839 -6.48474 30.4121 97.8726 -42.904 21.389 87.655 -17.2798 -5.4212 -7.22435 -13.2879 -59.2828 -5.36478 174.349 28.9746 95.5935 -42.4036 1.74128 77.8961 -32.0406 -3.28689 -16.7668 -19.7833 -75.6125 -16.6786 -11.619 -2.6537 7.18077 -12.1872 -9.75582 -3.36734 38.4127 5.18571 -5.58044 -33.2966 -5.33587 -0.466641 -11.9538 -2.65663 -2.43922 -91.8836 0.00394553 0.00895438 164.739 2.40946 4.35304 -28.9544 -6.44828 -2.17896 -11.626 -6.81848 -3.45026 -91.8836 0.00394166 0.00895438 
2.61409 90.7547 81.4005 -81.4252 -84.1043 -170.301 -7.05773 1.89533 -0.421466 14.2949 3.47046 -1.74305 3.01421 3.38187 -1.90939 -6.63521 30.5223 98.091 -38.7907 21.2581 85.7731 -15.8872 -5.45915 -6.67062 -12.6442 -56.9028 -4.5054 174.427 29.0122 95.4854 -39.4176 2.57277 79.149 -32.142 -3.25808 -16.8074 -21.4501 -76.6891 -18.2722 -12.223 -2.9958 7.70639 -12.8785 -9.67282 -4.71774 37.2976 8.41797 -3.16576 -39.211 -5.10481 -1.33008 -10.7443 -5.0119 -3.51279 -91.8836 0.00394553 0.00895438 169.821 4.25043 1.71334 -39.6924 -5.45425 -3.74356 -27.7567 -7.87394 -6.28756 -91.8836 0.00394166 0.00895438 
2.97471 90.8543 87.6422 -91.4206 -83.6499 179.009 -7.27588 1.97676 -0.317129 13.8592 3.68225 -1.5735 2.57947 3.60164 -1.75034 -6.69168 30.4839 98.1394 -36.2188 20.4842 85.0027 -16.1732 -5.39444 -6.84339 -12.7166 -56.8288 -4.45996 174.398 29.0914 95.5491 -38.1573 3.16136 79.8702 -31.4156 -3.37512 -16.4778 -22.711 -77.5782 -19.5773 -11.9032 -2.77732 7.68918 -12.6456 -9.54505 -4.04121 34.3934 9.87724 -1.86295 -44.1593 -4.83053 -2.09513 -6.54225 -4.37702 -2.92813 -91.8836 0.00394553 0.00895438 176.232 4.3473 0.343749 -50.9666 -3.83536 -5.06755 -40.6534 -5.59367 -7.10511 -91.8836 0.00394166 0.00895438 
3.31441 91.3351 93.7007 -93.3945 -83.4849 175.293 -7.37377 1.77982 -0.112545 13.6523 3.40015 -1.07765 2.37231 3.3439 -1.24141 -6.80705 30.4168 98.2514 -36.0834 19.0331 85.1422 -16.4118 -5.36825 -6.99078 -13.2136 -59.6451 -5.12401 174.276 29.1349 95.7476 -38.884 3.4131 79.8162 -29.2162 -3.79699 -15.4412 -21.8036 -76.8439 -18.6703 -11.9798 -2.43275 8.07076 -12.2454 -8.93004 -3.39038 29.9025 9.61923 1.20652 -45.3479 -4.82146 -2.44323 -2.26077 -1.88819 -1.75379 -91.8836 0.00394553 0.00895438 -175.122 5.5838 -2.13693 -63.8643 -2.10253 -6.02896 -30.9837 -3.72116 -4.14485 -91.8836 0.00394166 0.00895438 
3.68201 91.8525 99.6453 -93.6149 -84.2156 173.352 -7.34614 1.41286 0.0996526 13.6935 2.79028 -0.488788 2.41237 2.7633 -0.623608 -6.9177 30.3624 98.3698 -37.2344 17.5346 85.0381 -16.7393 -5.34008 -7.17331 -13.9905 -61.4511 -5.9636 174.213 29.2007 95.8597 -38.0507 4.20021 80.6647 -27.6372 -4.1007 -14.6557 -17.0172 -72.7884 -13.766 -12.5044 -2.21624 8.17193 -12.0595 -8.56498 -2.8614 25.141 9.63966 4.08327 -44.9476 -4.9752 -2.52596 0.989634 -0.654958 -1.34372 -91.8836 0.00394553 0.00895438 -166.637 7.13093 -4.91232 -71.5785 -0.957832 -6.21973 -21.2627 -0.615744 -1.57193 -91.8836 0.00394166 0.00895438 
3.68186 92.1724 105.484 -96.6398 -84.7819 169.879 -7.38143 1.07659 0.0732127 13.6169 2.12498 -0.376891 2.33449 2.1042 -0.47952 -6.93449 30.2983 98.3805 -39.4141 16.0219 84.9467 -17.89 -5.36961 -7.65288 -13.1958 -61.9106 -5.59347 174.169 29.2879 95.9813 -37.2087 5.49724 81.7057 -26.2879 -4.32926 -13.979 -14.8542 -70.2341 -11.572 -12.3142 -1.78484 8.21945 -12.7654 -7.80301 -2.50686 20.3468 9.45363 5.13408 -44.4436 -5.11385 -2.58606 4.33566 -0.400334 -1.35386 -91.8836 0.00394553 0.00895438 -159.321 8.06875 -5.66743 -74.4189 -0.55164 -6.02877 -13.5588 1.46967 -0.630937 -91.8836 0.00394166 0.00895438 
3.83107 92.0508 111.328 -99.5654 -86.1411 165.419 -7.39968 0.539835 0.238885 13.5723 1.16302 0.203882 2.28859 1.17154 0.147248 -6.95771 30.2259 98.3821 -43.1912 14.4531 84.7037 -19.2211 -5.30027 -8.22131 -13.6807 -62.8009 -6.13034 174.124 29.3535 96.0445 -36.9872 6.82724 82.5813 -25.1443 -4.50337 -13.4028 -14.1162 -69.4225 -10.899 -12.5227 -1.7418 8.2713 -12.3002 -7.8245 -2.11958 15.6641 8.75993 7.60955 -43.9155 -5.20447 -2.69011 7.58891 0.140931 -1.33403 -91.8836 0.00394553 0.00895438 -152.716 8.72404 -7.57777 -73.6596 -0.683337 -5.64601 -5.45783 1.55476 -0.864437 -91.8836 0.00394166 0.00895438 
3.78943 91.6502 116.934 -101.035 -87.5443 163.224 -7.36225 0.0452781 0.268636 13.6462 0.217511 0.499848 2.3619 0.241512 0.488725 -6.84977 30.1119 98.2625 -47.7289 13.2976 84.1024 -21.1787 -5.19853 -9.05418 -14.4879 -64.6682 -7.13869 174.232 29.375 95.9836 -37.9144 9.36412 83.7303 -25.2893 -4.52175 -13.4067 -14.8405 -70.0801 -11.5647 -12.1542 -1.53894 8.27518 -12.3242 -7.5422 -1.91478 11.6265 7.24886 9.09997 -43.0454 -5.30382 -2.72531 10.1823 0.99646 -1.31971 -91.8836 0.00394553 0.00895438 -147.259 9.06284 -8.07614 -69.2584 -1.21994 -5.1184 0.508961 2.42193 -0.90827 -91.8836 0.00394166 0.00895438 
3.76843 91.7125 122.736 -97.3071 -88.5337 165.646 -7.45017 -0.291719 0.436919 13.4719 -0.356113 0.988795 2.18733 -0.307744 1.0049 -6.73609 30.0179 98.1111 -52.981 12.2673 82.9607 -23.9772 -5.02339 -10.2111 -15.6615 -67.5904 -8.68784 174.212 29.4123 95.9742 -38.142 10.648 84.3753 -24.486 -4.63884 -12.9595 -14.0601 -69.5025 -11.052 -11.4008 -1.50782 8.47507 -11.9552 -7.46073 -2.18233 5.98118 6.91067 10.5668 -39.4606 -5.6964 -2.31025 11.4181 1.13256 -1.39048 -91.8836 0.00394553 0.00895438 -143.648 8.06466 -8.84714 -59.5396 -2.3231 -4.20835 0.322589 3.73083 -0.610352 -91.8836 0.00394166 0.00895438 
3.68325 91.7245 128.401 -11.588 -89.4197 -109.65 -7.24139 -0.688157 0.547739 13.8951 -1.06987 1.3967 2.61048 -1.00088 1.44693 -6.52933 29.9282 97.8812 -55.9873 11.8383 81.3948 -27.1979 -4.71422 -11.5992 -16.3257 -67.7076 -9.33289 174.344 29.4275 95.8277 -38.7177 13.4154 85.3593 -24.3526 -4.67385 -12.813 -13.8027 -69.372 -10.889 -11.7228 -1.52935 8.52893 -11.2101 -7.44035 -2.21755 0.408371 6.93442 11.0485 -34.5174 -6.17249 -1.61315 11.622 -0.403149 -1.60885 -91.8836 0.00394553 0.00895438 -141.822 6.59643 -9.43491 -45.7752 -3.62166 -2.81239 -4.96082 5.68245 0.408915 -91.8836 0.00394166 0.00895438 
3.2942 91.6387 133.973 50.641 -87.4755 -47.0307 -7.04735 -1.11446 0.348894 14.2912 -1.9913 1.22097 3.00792 -1.92975 1.31611 -6.37063 29.8389 97.6733 -58.1105 10.7286 79.5007 -29.7766 -4.39276 -12.7498 -17.0569 -68.8391 -10.1446 174.38 29.4606 95.833 -37.8414 15.0589 85.6403 -23.5927 -4.83658 -12.3775 -13.6755 -68.0144 -10.3707 -11.1644 -1.54916 8.79706 -11.1396 -7.47633 -2.24756 -3.81295 6.64018 9.46883 -30.0237 -6.54466 -0.93418 11.011 -3.22773 -1.96289 -91.8836 0.00394553 0.00895438 -142.2 4.88325 -8.97284 -30.1535 -4.59583 -1.08223 -10.3624 9.7089 2.66095 -91.8836 0.00394166 0.00895438 
2.97811 91.6774 139.682 69.4423 -84.3911 -28.5454 -6.90732 -1.75719 0.266539 14.5882 -3.27631 1.37965 3.30754 -3.20555 1.53704 -6.25141 29.7681 97.4893 -58.409 9.40322 77.79 -31.7466 -4.10815 -13.6457 -17.1769 -69.2151 -10.3242 174.424 29.5242 95.8252 -35.5225 16.5668 85.6813 -23.0321 -4.9185 -12.0597 -13.0098 -66.6711 -9.59358 -10.8822 -1.67489 8.73656 -10.8208 -7.97203 -1.75343 -7.98261 5.76413 8.01797 -26.0655 -6.85319 -0.387841 8.98294 -7.96456 -2.63247 -91.8836 0.00394553 0.00895438 -144.492 1.31697 -10.4899 -17.559 -5.04796 0.861975 -7.18432 16.8442 4.29376 -91.8836 0.00394166 0.00895438 
2.60475 91.2669 145.664 72.8983 -82.665 -25.3849 -6.81424 -1.99866 0.249825 14.7826 -3.75143 1.46921 3.50315 -3.67577 1.64958 -6.17495 29.7403 97.4075 -57.5276 7.86347 76.5438 -33.0259 -3.8793 -14.2721 -17.0231 -69.5598 -10.2298 174.432 29.5502 95.8594 -32.0685 17.5256 85.2292 -21.866 -5.03531 -11.4956 -12.0525 -65.1275 -8.55702 -10.2697 -1.693 9.07121 -11.349 -7.84301 -2.16483 -11.1376 4.31479 6.97373 -25.2032 -6.98203 -0.308813 6.75285 -10.2329 -3.1621 -91.8836 0.00394553 0.00895438 -145.38 -0.0926743 -11.3465 -14.5042 -5.17701 1.46563 -4.03497 16.4199 3.2608 -91.8836 0.00394166 0.00895438 
2.09516 90.6343 152.418 77.5508 -82.8287 -20.3222 -6.85174 -1.93967 0.143873 14.703 -3.68962 1.2334 3.4237 -3.62546 1.41106 -6.14516 29.7547 97.3219 -55.6682 6.58779 76.1423 -33.8465 -3.70867 -14.6804 -17.2107 -70.2461 -10.4491 174.401 29.6509 95.9162 -29.281 18.5248 84.5731 -20.8427 -5.13564 -10.9663 -11.2098 -63.8118 -7.7685 -10.3114 -1.64591 8.94011 -11.2777 -7.96422 -1.63049 -13.2316 2.41526 6.04892 -27.6909 -6.93616 -0.811829 1.45607 -10.2761 -3.77484 -91.8836 0.00394553 0.00895438 -143.644 4.92485 -10.4862 -22.0465 -5.0839 0.0657514 -5.56611 7.63595 1.26491 -91.8836 0.00394166 0.00895438 
1.40233 90.7782 159.536 84.8105 -82.2084 -11.9564 -6.835 -2.0411 -0.117076 14.7331 -4.01441 0.777706 3.45532 -3.97195 0.971752 -6.08491 29.8606 97.2443 -53.2345 6.4599 76.696 -34.8836 -3.52234 -15.1408 -18.1492 -70.9082 -11.33 174.295 29.7532 96.0428 -26.4773 18.8149 83.4382 -19.2355 -5.30582 -10.1808 -10.7843 -62.5552 -7.23397 -10.6914 -1.45671 8.94095 -11.2088 -7.60642 -1.336 -12.8316 1.63657 4.30946 -32.4905 -6.72392 -1.80478 -10.6052 -12.8996 -6.49056 -91.8836 0.00394553 0.00895438 -145.206 4.87973 -8.77333 -27.2311 -4.97223 -0.729028 -10.6083 4.77531 0.860641 -91.8836 0.00394166 0.00895438 
0.425594 90.5194 166.18 90.9571 -82.5537 -2.65322 -6.83495 -1.85548 -0.733682 14.7079 -3.95769 -0.510185 3.43025 -3.97776 -0.317361 -5.99579 29.9089 97.1681 -51.3559 7.10397 77.8398 -35.2696 -3.45399 -15.3417 -19.4896 -72.4961 -12.8142 174.28 29.7542 96.1285 -24.5271 19.3584 82.5629 -18.5811 -5.37341 -9.8531 -10.4087 -61.3168 -6.74804 -10.8449 -1.40068 8.95599 -11.919 -7.46459 -1.26278 -9.2444 2.83549 0.817534 -39.623 -6.03873 -3.09213 -29.1663 -12.6123 -10.546 -91.8836 0.00394553 0.00895438 -146.692 6.29409 -4.60828 -32.8339 -4.89653 -1.42915 -11.3655 2.34622 -0.0652162 -91.8836 0.00394166 0.00895438 
-0.435737 90.3865 172.364 97.9984 -83.4662 6.7097 -7.07621 -1.49078 -1.14468 14.2039 -3.44937 -1.49438 2.92392 -3.51776 -1.3252 -5.98943 29.9137 97.1277 -50.9543 7.26106 78.5323 -35.3547 -3.41129 -15.4066 -21.9633 -74.6349 -15.3436 174.182 29.6745 96.2256 -24.1753 18.3683 82.4031 -18.6086 -5.35217 -9.9054 -10.3114 -61.473 -6.722 -10.4523 -1.6137 8.94634 -11.4122 -7.86735 -1.58994 -4.68174 3.36729 -1.66555 -46.8948 -4.80248 -4.23938 -47.5853 -9.64566 -13.8388 -91.8836 0.00394553 0.00895438 -148.778 7.44531 -0.744168 -38.1407 -4.74402 -2.13453 -8.78273 2.2001 -0.176594 -91.8836 0.00394166 0.00895438 
-1.01485 90.8095 178.392 104.321 -84.2039 14.2422 -7.2067 -1.11097 -1.28657 13.9355 -2.77942 -1.95795 2.6531 -2.87107 -1.82082 -6.00586 29.9155 97.14 -51.2668 7.98775 79.3577 -35.1528 -3.50353 -15.2963 -22.1307 -74.8154 -15.6889 174.065 29.5536 96.3159 -25.2484 16.9123 82.5156 -18.5762 -5.33524 -9.97268 -10.6717 -62.6094 -7.04784 -10.9467 -1.79622 8.61235 -10.3385 -8.21658 -1.80685 1.83057 4.15798 -2.7995 -56.5149 -3.49519 -5.24123 -47.208 -9.57633 -13.7386 -91.8836 0.00394553 0.00895438 -153.109 7.77865 1.88094 -39.9294 -4.79899 -2.50723 -4.97117 3.01918 -0.00999326 -91.8836 0.00394166 0.00895438 
